<?xml version="1.0" encoding="utf-8"?>
<!-- Generator: Adobe Illustrator 16.0.0, SVG Export Plug-In . SVG Version: 6.00 Build 0)  -->
<!DOCTYPE svg PUBLIC "-//W3C//DTD SVG 1.1//EN" "http://www.w3.org/Graphics/SVG/1.1/DTD/svg11.dtd">
<svg version="1.1" id="Layer_1" xmlns="http://www.w3.org/2000/svg" xmlns:xlink="http://www.w3.org/1999/xlink" x="0px" y="0px"
	 width="560px" height="560px" viewBox="0 0 560 560" enable-background="new 0 0 560 560" xml:space="preserve">
<g id="Group" transform="translate(-720.000000, -48.000000)">
	<g id="XMLID_1_">
		<g>
			<path fill="#FFFFFF" d="M1112.92,277.81v75.28c0,50.19-50.189,100.37-100.37,100.37v50.19h75.271v25.09H912.18v-25.09h75.27
				v-50.19c-50.18,0-100.37-50.18-100.37-100.37v-75.28h25.1v75.28c0,37.641,37.64,75.28,75.27,75.28h25.1
				c37.63,0,75.271-37.64,75.271-75.28v-75.28H1112.92z"/>
			<path fill="#FFFFFF" d="M1062.73,177.25v176.04c0,27.39-22.521,49.99-50.311,49.99h-24.84c-27.88,0-50.31-22.37-50.31-49.99
				V177.25c0-27.4,22.52-49.99,50.31-49.99h24.84C1040.29,127.26,1062.73,149.63,1062.73,177.25z"/>
		</g>
		<g>
		</g>
	</g>
</g>
</svg>
